<?xml version="1.0" encoding="utf-8"?>
<!-- Generator: Adobe Illustrator 27.5.0, SVG Export Plug-In . SVG Version: 6.00 Build 0)  -->
<svg version="1.1" xmlns="http://www.w3.org/2000/svg" xmlns:xlink="http://www.w3.org/1999/xlink" x="0px" y="0px"
	 viewBox="0 0 500 500" style="enable-background:new 0 0 500 500;" xml:space="preserve">
<g id="BACKGROUND">
	<rect style="fill:#FFFFFF;" width="500" height="500"/>
</g>
<g id="OBJECTS">
	<g>
		<g>
			<g>
				<path style="fill:#FFFEFD;stroke:#00805E;stroke-miterlimit:10;" d="M147.375,297.244c0,0-45.931-40.87-57.869-85.606
					s19.632-46.99,51.163-18.729c31.531,28.261,56.833,68.77,59.424,79.746C202.684,283.632,187.484,331.194,147.375,297.244z"/>
				<g>
					
						<ellipse transform="matrix(0.6664 -0.7456 0.7456 0.6664 -192.6174 186.3961)" style="fill:#FFFEFD;stroke:#00805E;stroke-miterlimit:10;" cx="112.006" cy="308.465" rx="43.417" ry="88.609"/>
					<g>
						<path style="fill:none;stroke:#00805E;stroke-miterlimit:10;" d="M60.228,241.801c0,0,0.55,31.058,24.761,35.472
							c24.211,4.414,31.53,1.336,36.123,26.122c4.594,24.786,17.553,29.794,42.443,28.221s34.643,20.301,34.643,20.301"/>
						<path style="fill:none;stroke:#00805E;stroke-miterlimit:10;" d="M94.729,246.829c0,0-1.765,18.373,11.83,20.126
							c13.596,1.754,28.183,7.294,32.686,25.493c4.503,18.199,18.059,21.694,30.85,20.525"/>
						<path style="fill:none;stroke:#00805E;stroke-miterlimit:10;" d="M39.876,268.079c0,0,22.484,5.155,28.579,25.105
							c6.095,19.95,10.585,23.271,20.529,23.491c9.944,0.22,23.334,11.696,28.713,27.559c5.379,15.863,15.202,25.642,34.774,28.372"
							/>
					</g>
				</g>
				<g>
					
						<ellipse transform="matrix(0.6497 -0.7602 0.7602 0.6497 -97.3576 369.1632)" style="fill:#FFFEFD;stroke:#00805E;stroke-miterlimit:10;" cx="351.861" cy="290.214" rx="85.622" ry="38.534"/>
					<g>
						<path style="fill:none;stroke:#00805E;stroke-miterlimit:10;" d="M301.645,358.481c0,0-11.142-45.989,12.418-60.437
							c23.56-14.448,58.738-14.211,71.746-25.565c13.008-11.354,5.821-37.452,19.229-48.314"/>
						<path style="fill:none;stroke:#00805E;stroke-miterlimit:10;" d="M329.236,354.836c0,0-4.634-33.401,17.341-38.483
							s38.052-4.448,42.813-22.338c5.881-22.099,21.448-28.715,21.448-28.715"/>
						<path style="fill:none;stroke:#00805E;stroke-miterlimit:10;" d="M306.833,286.474c0,0,23.402-1.142,31.654-18.615
							c8.252-17.472,18.149-21.218,28.414-23.509c13.799-3.08,20.335-23.374,20.335-23.374"/>
					</g>
				</g>
				<g>
					<path style="fill:#FFFEFD;stroke:#00805E;stroke-miterlimit:10;" d="M251.682,247.57c0,0,11.491-66.287,46.192-103.201
						c34.701-36.914,55.015-8.864,46.936,36.758c-8.079,45.622-31.138,92.522-39.848,101.265
						C296.253,291.135,243.265,304.451,251.682,247.57z"/>
					<g>
						
							<ellipse transform="matrix(0.5 -0.866 0.866 0.5 -2.978 357.0966)" style="fill:#FFFEFD;stroke:#00805E;stroke-miterlimit:10;" cx="307.765" cy="181.127" rx="14.399" ry="6.087"/>
						<path style="fill:#FFFEFD;stroke:#00805E;stroke-miterlimit:10;" d="M317.701,217.452c-3.045,5.274-7.321,8.506-9.55,7.219
							c-2.229-1.287-1.568-6.606,1.477-11.88c3.045-5.274,7.321-8.506,9.55-7.219C321.407,206.859,320.745,212.178,317.701,217.452z
							"/>
						<path style="fill:#FFFEFD;stroke:#00805E;stroke-miterlimit:10;" d="M316.655,149.452c-3.136,5.431-7.539,8.76-9.835,7.434
							c-2.296-1.326-1.615-6.803,1.521-12.234c3.136-5.431,7.539-8.76,9.835-7.434S319.791,144.021,316.655,149.452z"/>
						<path style="fill:#FFFEFD;stroke:#00805E;stroke-miterlimit:10;" d="M333.761,174.943c-2.804,4.857-6.742,7.834-8.796,6.649
							c-2.053-1.186-1.444-6.084,1.36-10.941c2.804-4.857,6.742-7.834,8.796-6.649C337.174,165.186,336.565,170.085,333.761,174.943
							z"/>
						<path style="fill:#FFFEFD;stroke:#00805E;stroke-miterlimit:10;" d="M281.522,200.875c-3.146,5.449-7.563,8.788-9.867,7.458
							c-2.303-1.33-1.62-6.825,1.526-12.274c3.146-5.449,7.563-8.788,9.867-7.458C285.351,189.931,284.668,195.426,281.522,200.875z
							"/>
					</g>
				</g>
				
					<ellipse transform="matrix(0.8299 -0.5579 0.5579 0.8299 -107.5084 279.7548)" style="fill:#FFFEFD;stroke:#00805E;stroke-miterlimit:10;" cx="405.038" cy="316.189" rx="25.8" ry="12.873"/>
			</g>
			<g>
				<g>
					<line style="fill:none;stroke:#1C191B;stroke-miterlimit:10;" x1="288.144" y1="342.762" x2="428.134" y2="211.154"/>
					<g>
						<g>
							<path style="fill:#FF999A;stroke:#1C191B;stroke-miterlimit:10;" d="M452.925,205.836
								c-9.299,3.405-17.742,3.698-18.856,0.654c-1.115-3.044,5.521-8.272,14.82-11.677c9.299-3.405,17.742-3.698,18.856-0.654
								C468.86,197.203,462.225,202.431,452.925,205.836z"/>
							
								<ellipse transform="matrix(0.3241 -0.946 0.946 0.3241 118.0011 541.9115)" style="fill:#FF999A;stroke:#1C191B;stroke-miterlimit:10;" cx="438.256" cy="188.373" rx="17.932" ry="5.869"/>
							
								<ellipse transform="matrix(0.6497 -0.7602 0.7602 0.6497 9.2322 406.6107)" style="fill:#FF999A;stroke:#1C191B;stroke-miterlimit:10;" cx="445.786" cy="193.288" rx="17.932" ry="5.869"/>
						</g>
						<path style="fill:#00805E;stroke:#1C191B;stroke-miterlimit:10;" d="M434.466,212.551c-2.555,2.555-6.404,2.848-8.597,0.654
							c-2.193-2.193-1.9-6.042,0.654-8.597c2.555-2.555,6.404-2.848,8.597-0.654C437.314,206.147,437.021,209.996,434.466,212.551z"
							/>
					</g>
					<g>
						<ellipse style="fill:#00805E;stroke:#1C191B;stroke-miterlimit:10;" cx="414.297" cy="210.157" rx="4.273" ry="13.369"/>
						<ellipse style="fill:#00805E;stroke:#1C191B;stroke-miterlimit:10;" cx="401.095" cy="255.289" rx="18.414" ry="5.886"/>
						<path style="fill:#00805E;stroke:#1C191B;stroke-miterlimit:10;" d="M377.063,243.383c-0.726,12.968-4.675,23.293-8.82,23.061
							c-4.145-0.232-6.917-10.933-6.19-23.901c0.726-12.968,4.675-23.293,8.82-23.061
							C375.018,219.714,377.789,230.414,377.063,243.383z"/>
					</g>
				</g>
				<g>
					<line style="fill:none;stroke:#1C191B;stroke-miterlimit:10;" x1="201.021" y1="338.311" x2="133.31" y2="158.496"/>
					<g>
						<g>
							<path style="fill:#FF999A;stroke:#1C191B;stroke-miterlimit:10;" d="M137.927,133.566c-0.43,9.894-3.403,17.801-6.642,17.66
								c-3.239-0.141-5.516-8.275-5.086-18.169c0.43-9.894,3.403-17.801,6.642-17.66
								C136.08,115.537,138.357,123.672,137.927,133.566z"/>
							<path style="fill:#FF999A;stroke:#1C191B;stroke-miterlimit:10;" d="M120.058,136.003
								c7.416,6.563,11.686,13.852,9.538,16.279c-2.148,2.427-9.902-0.926-17.318-7.489c-7.416-6.564-11.686-13.852-9.538-16.28
								C104.888,126.087,112.642,129.439,120.058,136.003z"/>
							<path style="fill:#FF999A;stroke:#1C191B;stroke-miterlimit:10;" d="M128.834,132.681c4.478,8.833,5.765,17.182,2.874,18.648
								c-2.891,1.466-8.866-4.506-13.344-13.339c-4.478-8.833-5.765-17.182-2.874-18.648
								C118.382,117.876,124.356,123.848,128.834,132.681z"/>
						</g>
						<path style="fill:#00805E;stroke:#1C191B;stroke-miterlimit:10;" d="M137.033,153.187c1.377,3.34,0.168,7.006-2.699,8.188
							c-2.868,1.182-6.309-0.567-7.686-3.908c-1.377-3.34-0.168-7.006,2.699-8.188C132.215,148.098,135.656,149.847,137.033,153.187
							z"/>
					</g>
					<g>
						<path style="fill:#00805E;stroke:#1C191B;stroke-miterlimit:10;" d="M128.715,166.943c6.817,2.837,11.608,6.904,10.701,9.083
							c-0.907,2.179-7.168,1.645-13.985-1.192c-6.817-2.837-11.608-6.904-10.701-9.083
							C115.637,163.572,121.898,164.106,128.715,166.943z"/>
						<path style="fill:#00805E;stroke:#1C191B;stroke-miterlimit:10;" d="M151.15,179.099c-2.049,4.923-4.986,8.383-6.559,7.728
							c-1.574-0.655-1.188-5.177,0.861-10.1c2.049-4.923,4.986-8.383,6.559-7.728C153.584,169.654,153.199,174.176,151.15,179.099z"
							/>
					</g>
				</g>
				<g>
					<line style="fill:none;stroke:#1C191B;stroke-miterlimit:10;" x1="220.471" y1="324.864" x2="75.34" y2="198.948"/>
					<g>
						<g>
							<path style="fill:#FF999A;stroke:#1C191B;stroke-miterlimit:10;" d="M67.535,174.824c4.331,8.906,5.479,17.275,2.564,18.693
								c-2.915,1.418-8.79-4.653-13.12-13.559c-4.331-8.906-5.479-17.275-2.564-18.693
								C57.329,159.848,63.203,165.918,67.535,174.824z"/>
							<path style="fill:#FF999A;stroke:#1C191B;stroke-miterlimit:10;" d="M52.979,185.473c9.646,2.243,16.87,6.621,16.136,9.778
								c-0.734,3.157-9.149,3.899-18.795,1.656c-9.646-2.243-16.87-6.621-16.136-9.778C34.918,183.971,43.333,183.23,52.979,185.473
								z"/>
							
								<ellipse transform="matrix(0.5692 -0.8222 0.8222 0.5692 -126.5992 124.783)" style="fill:#FF999A;stroke:#1C191B;stroke-miterlimit:10;" cx="55.776" cy="183.2" rx="5.869" ry="17.932"/>
						</g>
						<path style="fill:#00805E;stroke:#1C191B;stroke-miterlimit:10;" d="M76.087,192.507c2.801,2.282,3.483,6.082,1.523,8.486
							c-1.96,2.405-5.818,2.504-8.619,0.221c-2.801-2.282-3.483-6.082-1.523-8.486C69.427,190.324,73.286,190.225,76.087,192.507z"
							/>
					</g>
					<g>
						<path style="fill:#00805E;stroke:#1C191B;stroke-miterlimit:10;" d="M75.318,208.564c7.345-0.749,13.494,0.547,13.734,2.895
							s-5.521,4.859-12.867,5.607c-7.346,0.749-13.494-0.547-13.734-2.895C62.212,211.823,67.972,209.313,75.318,208.564z"/>
						<path style="fill:#00805E;stroke:#1C191B;stroke-miterlimit:10;" d="M121.243,244.506c4.417-0.45,8.138,0.556,8.31,2.249
							c0.173,1.692-3.268,3.429-7.685,3.88c-4.417,0.45-8.138-0.556-8.31-2.248C113.385,246.693,116.826,244.956,121.243,244.506z"
							/>
						<path style="fill:#00805E;stroke:#1C191B;stroke-miterlimit:10;" d="M115.948,216.239c0.776,7.607-0.566,13.975-2.998,14.223
							c-2.432,0.248-5.032-5.718-5.807-13.325c-0.776-7.607,0.567-13.975,2.998-14.223
							C112.572,202.666,115.172,208.632,115.948,216.239z"/>
					</g>
				</g>
			</g>
		</g>
		<g>
			<path style="fill:#FFFEFD;stroke:#1C191B;stroke-miterlimit:10;" d="M179.964,398.004c0,0,29.036,17.268,76.897,13.018
				c47.861-4.251,45.601-12.309,45.601-12.309l-7.345-62.089L185.9,337.785L179.964,398.004z"/>
			<path style="fill:#FFFEFD;stroke:#1C191B;stroke-miterlimit:10;" d="M170.138,337.785c-18.424,10.928-42.192,1.161-45.774-23.909
				c-3.581-25.07,26.576-112.605,105.917-120.117c0,0,58.166-3.583,75.916,15.941c17.75,19.524,13.569,62.401,10.939,64.73
				c-2.63,2.329-41.375,29.43-54.724,36.717c-13.349,7.287-79.307,29.394-92.561,26.155"/>
			<g>
				<path style="fill:#FFFEFD;stroke:#1C191B;stroke-miterlimit:10;" d="M295.072,256.198c0,0,3.021,82.339,2.169,90.318
					c-0.852,7.979-9.004,12.945-29.793,17.461c-20.789,4.516-53.086,1.262-72.173-4.559c-19.087-5.821-12.364-61.374-12.364-61.374"
					/>
				<path style="fill:none;stroke:#1C191B;stroke-miterlimit:10;" d="M183.861,342.218c0,0,34.479,13.936,74.368,8.984
					c41.402-5.139,39.251-7.154,39.251-7.154"/>
			</g>
			<ellipse style="fill:#FFFEFD;stroke:#1C191B;stroke-miterlimit:10;" cx="245.397" cy="198.467" rx="20.39" ry="11.233"/>
		</g>
		<g>
			<path style="fill:#1C191B;" d="M206.387,134.02c0,0-12.6,13.032-16.995,31.878c-1.668,7.15,3.001,21.163,31.861,21.326
				c28.86,0.163,59.139-1.448,68.093-6.096c8.954-4.648,11.721-15.23,6.512-25.323c-2.873-5.567-18.395-31.907-20.512-33.21
				S210.522,126.073,206.387,134.02z"/>
			<g>
				<g>
					<path style="fill:#FFFEFD;stroke:#1C191B;stroke-miterlimit:10;" d="M290.606,144.559c-0.104,5.108-4.363,9.164-9.513,9.059
						c-5.15-0.105-9.24-4.331-9.136-9.439c0.104-5.108,4.363-9.164,9.513-9.059C286.62,135.225,290.71,139.451,290.606,144.559z"/>
					<g>
						<g>
							<path style="fill:#020202;" d="M276.691,145.488c-0.034-0.879,0.155-1.816,0.512-2.616c0.941-2.107,3.025-2.604,5.164-2.367
								c0.611,0.068,0.606-0.889,0-0.956c-2.314-0.257-4.638,0.335-5.82,2.497c-0.557,1.019-0.858,2.277-0.813,3.442
								C275.759,146.101,276.715,146.104,276.691,145.488L276.691,145.488z"/>
						</g>
					</g>
				</g>
				<g>
					<path style="fill:#FFFEFD;stroke:#1C191B;stroke-miterlimit:10;" d="M197.971,144.179c-0.104,5.108,3.986,9.334,9.136,9.439
						c5.15,0.105,9.409-3.951,9.513-9.059c0.104-5.108-3.986-9.334-9.137-9.439C202.334,135.015,198.075,139.071,197.971,144.179z"
						/>
					<g>
						<g>
							<path style="fill:#020202;" d="M212.792,145.693c0.093-1.159-0.161-2.426-0.677-3.462c-1.098-2.206-3.406-2.888-5.728-2.723
								c-0.61,0.043-0.615,1,0,0.956c2.147-0.152,4.218,0.45,5.055,2.601c0.318,0.816,0.464,1.753,0.394,2.629
								C211.787,146.307,212.744,146.304,212.792,145.693L212.792,145.693z"/>
						</g>
					</g>
				</g>
			</g>
			<g>
				<path style="fill:#FFFEFD;stroke:#1C191B;stroke-miterlimit:10;" d="M256.746,190.784c0.101,5.281-4.138,9.685-9.419,9.786
					l-4.091,0.078c-5.281,0.101-9.685-4.137-9.786-9.419l-0.378-19.759c-0.101-5.281,4.137-9.685,9.419-9.786l4.09-0.078
					c5.281-0.101,9.685,4.137,9.786,9.419L256.746,190.784z"/>
				<g>
					<path style="fill:#FFFEFD;" d="M273.221,150.201c0,12.1-9.9,22-22,22h-14.938c-12.1,0-22-9.9-22-22v-34.056
						c0-12.1,9.9-22,22-22h14.938c12.1,0,22,9.9,22,22V150.201z"/>
					<path style="fill:none;stroke:#1C191B;stroke-miterlimit:10;" d="M273.221,150.201c0,12.1-9.9,22-22,22h-14.938
						c-12.1,0-22-9.9-22-22v-34.056c0-12.1,9.9-22,22-22h14.938c12.1,0,22,9.9,22,22V150.201z"/>
				</g>
				<g>
					<polygon style="fill:#FF6766;" points="243.463,127.149 240.235,140.654 247.3,140.512 					"/>
					<g>
						<path style="fill:#0C0C0C;" d="M228.079,134.069c-0.06,1.884-1.637,3.363-3.521,3.302c-1.884-0.06-3.363-1.637-3.302-3.521
							c0.06-1.884,1.637-3.363,3.521-3.303C226.661,130.608,228.139,132.185,228.079,134.069z"/>
						<path style="fill:#0C0C0C;" d="M264.179,130.716c-0.06,1.884-1.637,3.363-3.521,3.302c-1.884-0.06-3.363-1.637-3.303-3.521
							c0.061-1.884,1.637-3.363,3.522-3.302C262.761,127.255,264.24,128.831,264.179,130.716z"/>
					</g>
					<g>
						<path style="fill:#FF999A;" d="M230.26,147.614c-0.31,4.089-3.877,7.152-7.966,6.842c-4.089-0.31-7.152-3.877-6.842-7.966
							c0.31-4.089,3.877-7.152,7.966-6.842C227.507,139.959,230.57,143.525,230.26,147.614z"/>
						<path style="fill:#FF999A;" d="M270.871,145.064c-0.31,4.089-3.877,7.152-7.966,6.842c-4.089-0.31-7.152-3.877-6.842-7.966
							c0.31-4.089,3.877-7.152,7.966-6.842C268.118,137.408,271.181,140.975,270.871,145.064z"/>
					</g>
					<g>
						<g>
							<path style="fill:#0C0C0C;" d="M240.119,152.623c2.173,4.389,10.953,4.02,12.066-1.043c0.144-0.655-0.863-0.935-1.007-0.278
								c-0.922,4.196-8.377,4.389-10.157,0.794C240.723,151.493,239.822,152.022,240.119,152.623L240.119,152.623z"/>
						</g>
					</g>
				</g>
			</g>
			<path style="fill:#1C191B;" d="M203.473,136.27c0,0-10.5-10.012-8.791-26.617c1.709-16.605,15.905-31.186,29.058-32.233
				c19.169-1.526,24.907,6.593,24.907,6.593s13.11-10.877,30.605,4.233c16.116,13.919-0.57,40.21-0.57,40.21l-5.462,0.549
				c0,0-0.032-20.646-14.195-22.256c-14.163-1.61-15.945,17.638-36.17,1.805c0,0,0.885,17.704-10.103,25.762L203.473,136.27z"/>
			<g>
				<path style="fill:#00805E;stroke:#1C191B;stroke-miterlimit:10;" d="M270.107,107.793c-3.386,2.276-6.923,2.942-7.901,1.487
					c-0.978-1.455,0.974-4.479,4.359-6.755c3.386-2.276,6.923-2.942,7.901-1.487C275.445,102.492,273.493,105.517,270.107,107.793z"
					/>
				<path style="fill:#00805E;stroke:#1C191B;stroke-miterlimit:10;" d="M275.052,115.599c-3.533,2.04-7.108,2.463-7.984,0.944
					c-0.877-1.518,1.277-4.403,4.81-6.443c3.533-2.04,7.108-2.463,7.984-0.944C280.738,110.675,278.585,113.56,275.052,115.599z"/>
			</g>
		</g>
		<g>
			<g>
				<path style="fill:#FFFEFD;stroke:#1C191B;stroke-miterlimit:10;" d="M265.787,409.598c0,0,6.207-75.397,10.3-83.024
					c4.093-7.627,79.329-3.256,80.525,1.954c1.196,5.209,15.848,66.094,13.568,72.931c-2.279,6.837-25.566,16.605-45.179,20.186
					C305.389,425.225,267.208,420.016,265.787,409.598z"/>
				<g>
					<g>
						<g>
							<path style="fill:#00805E;stroke:#1C191B;stroke-miterlimit:10;" d="M318.266,339.111c0,0-0.796,4.322-1.921,3.142
								c-1.125-1.179-3.331-56.289-2.177-62.467c1.576-8.43,14.365-13.246,15.039,6.66
								C329.882,306.352,318.266,339.111,318.266,339.111z"/>
							<path style="fill:#00805E;stroke:#1C191B;stroke-miterlimit:10;" d="M316.706,341.008c0,0-0.425,1.099,0.434,1.52
								c0.86,0.421,1.762,0.196,3.614-2.844c0,0,23.276-40.971,25.733-51.556c2.268-9.775-16.573-21.109-22.489,7.617
								C318.082,324.471,316.706,341.008,316.706,341.008z"/>
						</g>
						<g>
							<path style="fill:#FFFEFD;stroke:#1C191B;stroke-miterlimit:10;" d="M303.573,384.869c0,0,0.397-34.566,3.954-42.03
								c3.557-7.464,13.084-7.231,16.274-1.202c2.992,5.654-9.296,32.942-11.687,38.955S303.82,398.637,303.573,384.869z"/>
							<g>
								<line style="fill:#FFFEFD;stroke:#1C191B;stroke-miterlimit:10;" x1="304.963" y1="360.604" x2="310.567" y2="361.511"/>
								<line style="fill:#FFFEFD;stroke:#1C191B;stroke-miterlimit:10;" x1="310.989" y1="353.169" x2="317.136" y2="354.163"/>
								<line style="fill:#FFFEFD;stroke:#1C191B;stroke-miterlimit:10;" x1="308.888" y1="344.481" x2="314.957" y2="345.462"/>
								<line style="fill:#FFFEFD;stroke:#1C191B;stroke-miterlimit:10;" x1="317.994" y1="348.86" x2="323.335" y2="350.281"/>
								<line style="fill:#FFFEFD;stroke:#1C191B;stroke-miterlimit:10;" x1="309.466" y1="368.321" x2="316.095" y2="369.393"/>
								<line style="fill:#FFFEFD;stroke:#1C191B;stroke-miterlimit:10;" x1="304.178" y1="376.927" x2="307.885" y2="377.527"/>
								<line style="fill:#FFFEFD;stroke:#1C191B;stroke-miterlimit:10;" x1="306.833" y1="382.304" x2="310.976" y2="383.28"/>
							</g>
						</g>
					</g>
					<g>
						<g>
							<path style="fill:#00805E;stroke:#1C191B;stroke-miterlimit:10;" d="M332.524,341.78c0,0,19.147-46.611,37.795-57.024
								c15.271-8.527,12.764,7.753-1.459,21.072C362.123,312.139,332.655,346.104,332.524,341.78z"/>
							<path style="fill:#00805E;stroke:#1C191B;stroke-miterlimit:10;" d="M331.744,341.958c0,0,1.619-22.739,10.005-47.757
								c8.386-25.018,19.249-23.839,22.089-21.908c2.84,1.931,2.022,15.419-10.49,38.118
								C340.838,333.11,332.341,345.222,331.744,341.958z"/>
						</g>
						<g>
							<path style="fill:#FFFEFD;stroke:#1C191B;stroke-miterlimit:10;" d="M301.065,392.621c0,0,14.467-42.839,22.682-50.903
								c8.215-8.064,16.247-2.295,15.265,4.503c-0.982,6.798-17.846,35.213-24.442,43.501
								C307.975,398.009,298.089,403.559,301.065,392.621z"/>
							<g>
								<line style="fill:#FFFEFD;stroke:#1C191B;stroke-miterlimit:10;" x1="317.509" y1="361.108" x2="313.809" y2="359.418"/>
								<line style="fill:#FFFEFD;stroke:#1C191B;stroke-miterlimit:10;" x1="322.785" y1="355.132" x2="327.453" y2="357.175"/>
								<line style="fill:#FFFEFD;stroke:#1C191B;stroke-miterlimit:10;" x1="322.483" y1="367.746" x2="327.52" y2="369.785"/>
								<line style="fill:#FFFEFD;stroke:#1C191B;stroke-miterlimit:10;" x1="311.787" y1="373.216" x2="316.299" y2="375.106"/>
								<line style="fill:#FFFEFD;stroke:#1C191B;stroke-miterlimit:10;" x1="311.539" y1="383.35" x2="315.531" y2="385.052"/>
								<line style="fill:#FFFEFD;stroke:#1C191B;stroke-miterlimit:10;" x1="304.898" y1="388.366" x2="307.766" y2="389.727"/>
								<line style="fill:#FFFEFD;stroke:#1C191B;stroke-miterlimit:10;" x1="331.039" y1="348.795" x2="337.034" y2="351.202"/>
								<line style="fill:#FFFEFD;stroke:#1C191B;stroke-miterlimit:10;" x1="321.226" y1="347.903" x2="325.928" y2="350.011"/>
							</g>
						</g>
					</g>
					<g>
						<path style="fill:#00805E;stroke:#1C191B;stroke-miterlimit:10;" d="M343.259,354.452c0,0-5.601-12.513,0-13.064
							c3.724-0.366,2.93,7.448,2.93,7.448s7.081-6.776,11.904-4.823C362.916,345.966,346.311,357.016,343.259,354.452z"/>
						<path style="fill:#FFFEFD;stroke:#1C191B;stroke-miterlimit:10;" d="M310.11,396.574c0,0-3.581-9.442,2.279-17.581
							c5.861-8.14,11.721-7,14.814-12.372c3.093-5.372,5.408-13.186,17.193-12.535c11.784,0.651,7.785,14.555,6.901,19.698
							c-0.315,1.829-0.341,3.789,1.953,7.163c4.151,6.105,2.803,19.209-8.854,26.21C332.738,414.156,315.808,414.319,310.11,396.574
							z"/>
						<path style="fill:#FFFEFD;stroke:#1C191B;stroke-miterlimit:10;" d="M351.14,392.742c-2.016,4.094-5.259,6.62-7.244,5.642
							s-1.961-5.088,0.055-9.182c2.016-4.094,5.259-6.62,7.244-5.642C353.18,384.538,353.155,388.648,351.14,392.742z"/>
					</g>
					<g>
						<path style="fill:#FF6766;stroke:#1C191B;stroke-miterlimit:10;" d="M309.744,406.708c-6.43,3.553-21.122,8.913-31.622-1.587
							c-10.5-10.5-4.704-25.103,6.105-28.57c4.314-1.384,6.45-0.163,11.216-4.802c4.766-4.639,16.09-5.18,22.238,1.628
							C327.488,384.238,320.059,401.009,309.744,406.708z"/>
						<g>
							<path style="fill:#00805E;stroke:#1C191B;stroke-miterlimit:10;" d="M288.947,367.434c0,0,0.326-13.023,6.186-15.302
								c5.861-2.279,7.563,3.938,6.512,6.349C298.878,364.83,288.947,367.434,288.947,367.434z"/>
							<line style="fill:none;stroke:#1C191B;stroke-miterlimit:10;" x1="291.878" y1="378.993" x2="286.017" y2="357.667"/>
						</g>
					</g>
				</g>
				<path style="fill:#1C191B;" d="M329.236,251.901c0,0,17.389,14.114,27.376,76.626h-9.936
					C346.676,328.527,341.686,270.345,329.236,251.901z"/>
			</g>
			<g>
				<path style="fill:#1C191B;" d="M357.641,332.914c-0.515-2.196-0.879-3.732-1.029-4.387c-1.196-5.209-76.432-9.58-80.525-1.954
					c-0.589,1.097-1.221,3.601-1.873,7.076C289.359,332.772,327.656,330.951,357.641,332.914z"/>
				<g>
					<path style="fill:#1C191B;" d="M315.361,322.659l51.784,82.635c0.303-0.258,0.585-0.513,0.848-0.768l-51.272-81.817
						C316.268,322.692,315.814,322.675,315.361,322.659z"/>
					<path style="fill:#1C191B;" d="M338.487,324.258l26.749,42.684c-0.221-1.062-0.444-2.126-0.669-3.188l-24.65-39.335
						C339.447,324.364,338.969,324.311,338.487,324.258z"/>
					<path style="fill:#1C191B;" d="M268.134,383.602l87.615-55.928c-0.327-0.186-0.734-0.37-1.23-0.551l-86.247,55.055
						C268.225,382.655,268.179,383.131,268.134,383.602z"/>
					<path style="fill:#1C191B;" d="M271.504,352.245l44.306-29.57c-0.645-0.023-1.289-0.045-1.932-0.064l-42.191,28.159
						C271.626,351.257,271.565,351.75,271.504,352.245z"/>
					<path style="fill:#1C191B;" d="M270.621,415.188l91.814-61.279c-0.087-0.395-0.174-0.788-0.261-1.179l-92.594,61.799
						C269.909,414.753,270.255,414.972,270.621,415.188z"/>
					<path style="fill:#1C191B;" d="M296.736,422.016l70.165-46.829c-0.078-0.397-0.156-0.796-0.235-1.197l-71.663,47.829
						C295.579,421.889,296.156,421.954,296.736,422.016z"/>
					<path style="fill:#1C191B;" d="M334.279,419.57l35.935-23.983c-0.039-0.405-0.084-0.829-0.133-1.265l-39.031,26.05
						C332.124,420.119,333.201,419.852,334.279,419.57z"/>
					<path style="fill:#1C191B;" d="M292.876,322.756l57.401,91.598c0.357-0.141,0.711-0.283,1.063-0.426l-57.176-91.239
						C293.73,322.71,293.3,322.732,292.876,322.756z"/>
					<path style="fill:#1C191B;" d="M276.406,326.152l58.446,93.265c0.379-0.101,0.758-0.203,1.137-0.307l-58.679-93.638
						C276.936,325.686,276.632,325.912,276.406,326.152z"/>
					<path style="fill:#1C191B;" d="M271.809,349.799l45.587,72.745c0.427-0.029,0.852-0.059,1.27-0.094l-46.631-74.412
						C271.96,348.619,271.885,349.206,271.809,349.799z"/>
					<path style="fill:#1C191B;" d="M268.401,380.854l25.592,40.839c0.48,0.062,0.96,0.125,1.443,0.182l-26.854-42.853
						C268.521,379.636,268.461,380.247,268.401,380.854z"/>
				</g>
				<path style="fill:#1C191B;" d="M279.289,325.271c0,0,6.565-61.562,37.17-80.921c0,0-23.116,40.874-28.651,82.223
					L279.289,325.271z"/>
			</g>
			<g>
				<g>
					<g>
						<path style="fill:#FFFEFD;" d="M220.5,398.266c-0.139,3.297-2.95,5.881-6.247,5.742l-78.729-3.315
							c-3.297-0.139-5.881-2.95-5.742-6.247l4.081-96.905c0.139-3.297,2.95-5.881,6.247-5.742l78.729,3.315
							c3.297,0.139,5.881,2.95,5.742,6.247L220.5,398.266z"/>
						<path style="fill:none;stroke:#1C191B;stroke-miterlimit:10;" d="M220.5,398.266c-0.139,3.297-2.95,5.881-6.247,5.742
							l-78.729-3.315c-3.297-0.139-5.881-2.95-5.742-6.247l4.081-96.905c0.139-3.297,2.95-5.881,6.247-5.742l78.729,3.315
							c3.297,0.139,5.881,2.95,5.742,6.247L220.5,398.266z"/>
					</g>
					<g>
						<path style="fill:#FF999A;stroke:#1C191B;stroke-miterlimit:10;" d="M175.318,367.746
							c-3.498,0.641-19.293-18.333-19.209-35.801c0.07-14.709,17.256-15.14,21-3.012c1.575,5.102,2.661,10.979,2.661,10.979
							s6.95-14.967,15.982-15.618c9.032-0.651,10.497,8.633,4.311,20.677C193.877,357.016,178.207,367.217,175.318,367.746z"/>
						<g>
							<path style="fill:#FFFEFD;stroke:#1C191B;stroke-miterlimit:10;" d="M157.745,359.492c0,0-12.439-3.03-12.9,3.515
								c-0.461,6.546,14.512,1.091,15.664,0C161.661,361.917,160.509,359.25,157.745,359.492z"/>
							<path style="fill:#FFFEFD;stroke:#1C191B;stroke-miterlimit:10;" d="M160.624,364.22c0,0-8.869-2.909-10.251-8
								c-1.382-5.091,4.032-4.97,7.602-1.455C161.546,358.28,165.703,366.592,160.624,364.22z"/>
							<path style="fill:#FFFEFD;stroke:#1C191B;stroke-miterlimit:10;" d="M163.028,373.214c0,0-3.826,7.244-1.465,9.198
								c2.36,1.953,4.151-3.012,4.721-6.837C166.853,371.748,165.11,369.836,163.028,373.214z"/>
							<path style="fill:#FFFEFD;stroke:#1C191B;stroke-miterlimit:10;" d="M169.214,370.69c0,0-6.349,5.047-10.989,7.488
								c-4.64,2.442-8.058,2.035-7-1.302c1.058-3.337,12.942-7.57,15.791-8.302C169.865,367.841,171.15,369.203,169.214,370.69z"/>
							<path style="fill:#FFFEFD;stroke:#1C191B;stroke-miterlimit:10;" d="M189.603,364.297c0,0,1.587-3.049,8.424-6.63
								c6.837-3.581,7.204,0.57,3.052,3.315C198.523,362.673,190.946,368.16,189.603,364.297z"/>
							<path style="fill:#FFFEFD;stroke:#1C191B;stroke-miterlimit:10;" d="M195.952,370.446c0,0-7.692-3.995-8.302-6.149
								c-0.61-2.154,6.349-1.753,10.988,0C203.278,366.051,202.667,373.742,195.952,370.446z"/>
						</g>
					</g>
					<g>
						<g>
							<path style="fill:#FFFEFD;" d="M214.729,318.335c0,1.1-0.9,2-2,2h-10.356c-1.1,0-2-0.9-2-2V195.759c0-1.1,0.9-2,2-2h10.356
								c1.1,0,2,0.9,2,2V318.335z"/>
							<path style="fill:none;stroke:#1C191B;stroke-miterlimit:10;" d="M214.729,318.335c0,1.1-0.9,2-2,2h-10.356c-1.1,0-2-0.9-2-2
								V195.759c0-1.1,0.9-2,2-2h10.356c1.1,0,2,0.9,2,2V318.335z"/>
						</g>
						<circle style="fill:#FFFEFD;stroke:#1C191B;stroke-miterlimit:10;" cx="207.551" cy="302.684" r="4.64"/>
					</g>
				</g>
				<g>
					<g>
						<path style="fill:#FFFEFD;stroke:#1C191B;stroke-miterlimit:10;" d="M177.181,283.487c0,0-21.644-85.682-25.916-112.543
							c-4.272-26.861,12.971-34.919,23.152-4.151c10.18,30.768,27.518,94.65,28.494,105.686c0.977,11.036-8.595,54.796-25.73,12.013
							"/>
						<g>
							<path style="fill:#FFFEFD;stroke:#1C191B;stroke-miterlimit:10;" d="M173.262,168.068c0.178,1.614-3.886,3.387-9.078,3.96
								c-5.192,0.573-9.545-0.27-9.723-1.884c-0.178-1.614,3.886-3.387,9.078-3.96C168.731,165.611,173.084,166.454,173.262,168.068
								z"/>
							<path style="fill:#FFFEFD;stroke:#1C191B;stroke-miterlimit:10;" d="M177.23,183.104c0.178,1.614-4.064,3.407-9.474,4.004
								c-5.411,0.598-9.942-0.227-10.12-1.841c-0.178-1.614,4.064-3.407,9.475-4.004C172.521,180.666,177.052,181.49,177.23,183.104
								z"/>
							<path style="fill:#FFFEFD;stroke:#1C191B;stroke-miterlimit:10;" d="M182.173,199.485c0.178,1.614-4.401,3.444-10.228,4.087
								c-5.827,0.643-10.695-0.143-10.873-1.757c-0.178-1.614,4.401-3.444,10.228-4.087
								C177.126,197.085,181.994,197.871,182.173,199.485z"/>
							<path style="fill:#FFFEFD;stroke:#1C191B;stroke-miterlimit:10;" d="M187.002,218.059c0.178,1.614-4.401,3.444-10.228,4.087
								c-5.827,0.643-10.695-0.144-10.873-1.757c-0.178-1.614,4.401-3.444,10.228-4.087
								C181.956,215.658,186.824,216.445,187.002,218.059z"/>
							<path style="fill:#FFFEFD;stroke:#1C191B;stroke-miterlimit:10;" d="M191.088,236.76c0.178,1.614-4.401,3.444-10.228,4.087
								c-5.827,0.643-10.695-0.143-10.873-1.757c-0.178-1.614,4.401-3.444,10.228-4.087
								C186.042,234.359,190.91,235.146,191.088,236.76z"/>
							<path style="fill:#FFFEFD;stroke:#1C191B;stroke-miterlimit:10;" d="M195.061,252.069c0.178,1.614-4.401,3.444-10.228,4.087
								c-5.827,0.643-10.695-0.143-10.873-1.757c-0.178-1.614,4.401-3.444,10.228-4.087
								C190.015,249.669,194.883,250.455,195.061,252.069z"/>
						</g>
					</g>
					<g>
						<path style="fill:#00805E;stroke:#1C191B;stroke-miterlimit:10;" d="M174.342,298.044c0,0-12.207,5.217-11.354-7.83
							c0,0-15.916,0.871-18.153-10.606c-2.238-11.477,9.483-14.308,9.483-14.308s-18.802,2.343-21-9.378
							c-2.198-11.721,8.2-16.868,13.43-16.849c0,0-14.764-0.999-13.731-10.267s11.817-4.641,11.817-4.641
							s-15.912-16.978-6.145-25.698c9.768-8.721,15.763,8.206,17.88,20.338c0,0,1.899-5.372,9.713-5.861
							c7.814-0.488,7.297,11.701,2.061,20.502c0,0,4.351-2.696,8.837,0c4.486,2.696,3.631,12.292-0.52,15.271
							c0,0,8.913-2.19,13.064,5.25c4.102,7.351,1.409,11.142-1.012,17.356c-0.022,0.056,0.037,0.114,0.088,0.082
							c0.495-0.313,3.928-2.506,7.639,0.631C201.062,275.945,189.725,293.283,174.342,298.044z"/>
						<g>
							<line style="fill:none;stroke:#1C191B;stroke-miterlimit:10;" x1="140.204" y1="197.301" x2="190.621" y2="310.132"/>
							<line style="fill:none;stroke:#1C191B;stroke-miterlimit:10;" x1="133.423" y1="226.923" x2="157.417" y2="235.823"/>
							<line style="fill:none;stroke:#1C191B;stroke-miterlimit:10;" x1="133.279" y1="250.087" x2="169.251" y2="262.308"/>
							<line style="fill:none;stroke:#1C191B;stroke-miterlimit:10;" x1="144.835" y1="279.608" x2="180.431" y2="287.328"/>
						</g>
					</g>
				</g>
			</g>
		</g>
		<g>
			<g>
				<g>
					<path style="fill:#FFFEFD;stroke:#1C191B;stroke-miterlimit:10;" d="M352.924,224.165c0,0,3.093-8.616,12.209-10.569
						c9.116-1.953,19.624-3.907,22.103-7.814c2.479-3.907,9.805-27.675,7.689-29.14c-2.116-1.465-8.994,11.518-8.994,11.518
						s3.622-14.448,2.32-15.75c-1.302-1.302-3.907,0.977-7.651,8.628c-3.744,7.651-11.884,19.861-18.395,20.186
						c-6.512,0.326-16.303,2.033-20.15,7.785c-3.847,5.752-6.059,12.401-6.059,12.401S350.545,228.31,352.924,224.165z"/>
					<g>
						<path style="fill:#FFFEFD;stroke:#1C191B;stroke-miterlimit:10;" d="M293.379,300.489c0,0,2.243,19.247,23.08,15.341
							c20.837-3.907,23.168-21.489,28.351-37.768c5.184-16.279,11.044-56,11.044-56l-18.891-7.814c0,0-24.412,34.384-33.203,51.053
							C294.97,281.969,293.379,300.489,293.379,300.489z"/>
						<line style="fill:none;stroke:#1C191B;stroke-miterlimit:10;" x1="330.043" y1="224.165" x2="354.064" y2="233.447"/>
					</g>
				</g>
				<g>
					<path style="fill:#FF6766;stroke:#1C191B;stroke-miterlimit:10;" d="M361.015,174.534c0,0-16.555-8.31-22.904,8.62
						c-6.349,16.93,15.14,28.326,28.489,25.396c13.349-2.93,18.477-11.477,20.43-21.977
						C389.064,175.634,375.779,160.704,361.015,174.534z"/>
					<g>
						<path style="fill:#00805E;stroke:#1C191B;stroke-miterlimit:10;" d="M360.087,168.502
							c-0.488,0.021,3.242-22.255,12.535-18.233C383.529,154.991,371.483,168.014,360.087,168.502z"/>
						<line style="fill:none;stroke:#1C191B;stroke-miterlimit:10;" x1="357.971" y1="155.805" x2="362.204" y2="181.851"/>
					</g>
					<g>
						<path style="fill:#FFFEFD;stroke:#1C191B;stroke-miterlimit:10;" d="M347.964,183.917c-0.331,2.835-2.01,4.969-3.752,4.766
							c-1.741-0.203-2.885-2.666-2.554-5.502c0.331-2.835,2.01-4.969,3.752-4.766C347.151,178.618,348.294,181.081,347.964,183.917z
							"/>
						<path style="fill:#FFFEFD;stroke:#1C191B;stroke-miterlimit:10;" d="M346.785,194.023c-0.164,1.406-1.31,2.429-2.561,2.283
							c-1.25-0.146-2.131-1.404-1.967-2.811s1.311-2.428,2.561-2.283C346.068,191.358,346.949,192.616,346.785,194.023z"/>
					</g>
				</g>
			</g>
			<g>
				<path style="fill:#FFFEFD;stroke:#1C191B;stroke-miterlimit:10;" d="M194.691,265.3c0,0,11.884-17.029,14.488-21.913
					c2.605-4.884,4.558-18.373,6.674-17.896c2.116,0.477,0,9.919,0,9.919s8.954-18.884,11.395-18.721
					c2.442,0.163-5.209,18.395-5.209,18.395s7.488-16.93,10.093-17.093c2.605-0.163-4.721,17.419-4.721,17.419
					s7.814-15.303,10.581-15.303c2.768,0-6.349,17.907-6.349,17.907s8.14-13.001,10.419-12.524
					c2.279,0.477-14.977,35.425-31.256,51.975C194.528,294.015,190.133,271.911,194.691,265.3z"/>
				<g>
					<path style="fill:#FFFEFD;" d="M194.628,261.131l-25.575,20.593c-0.113-0.017-0.239-0.004-0.357-0.009l-12.587,10.173
						c0,0-13.104-5.931-20.837,0.906c-5.169,4.57-5.802,11.247-5.78,17.758l-4.993,4.197c3.581,25.07,27.215,33.965,45.639,23.037
						c18.424-10.928,42.053-58.198,42.053-58.198L194.628,261.131z"/>
					<path style="fill:#1C191B;" d="M154.294,342.762c-4.386,0-8.734-0.952-12.743-2.872c-9.577-4.589-16.045-14.042-17.744-25.935
						l1.115-0.158c1.645,11.514,7.883,20.655,17.116,25.077c8.715,4.177,19.114,3.588,27.813-1.573
						c17.24-10.226,39.444-53.261,41.658-57.614l-16.932-17.793l-45.441,36.589l-0.706-0.878l46.248-37.238l18.193,19.117
						l-0.176,0.354c-0.968,1.936-23.914,47.543-42.269,58.43C165.396,341.253,159.815,342.761,154.294,342.762z"/>
					<line style="fill:none;stroke:#1C191B;stroke-miterlimit:10;" x1="184.51" y1="269.663" x2="205.28" y2="292.429"/>
				</g>
			</g>
		</g>
	</g>
</g>
</svg>
